<svg aria-hidden="true" width="18" height="18" viewBox="0 0 36 36"
    xmlns="http://www.w3.org/2000/svg">
    <path
        d="M24.48 9.493V8.21c0-1.068-.303-2.136-.908-3.205-.404-1.068-1.11-1.816-2.119-2.243a6.082 6.082 0 00-3.328-.962c-1.009 0-2.017.32-3.026.962-.807.427-1.513 1.175-2.118 2.243-.606 1.069-.908 2.137-.908 3.205v1.283h-1.816L6.93 5.967l-1.21 1.282 3.328 3.526v.32a15.581 15.581 0 00-1.21 6.09v1.603H3.6v1.923h4.539c.403 2.137 1.11 4.06 2.118 5.77l-4.236 4.487 1.513 1.282 3.934-4.167c1.008 1.282 2.017 2.244 3.026 2.885 1.21.427 2.42.64 3.63.64 1.413 0 2.623-.213 3.632-.64 1.21-.641 2.32-1.496 3.329-2.564l.302-.321 3.934 4.487 1.21-1.602-4.236-4.488c1.009-1.71 1.715-3.632 2.118-5.769h4.54v-1.923h-4.237v-1.603c0-2.137-.303-4.273-.908-6.41h-.303l3.329-3.526-1.21-1.282-3.329 3.526h-1.816zm-10.592 0V8.21c0-1.282.404-2.35 1.21-3.205 1.01-.854 2.119-1.282 3.33-1.282 1.21 0 2.218.428 3.025 1.282.807.855 1.21 1.923 1.21 3.205v1.283h-8.775zm12.104 1.923v.32c.606 1.71.908 3.526.908 5.45 0 1.922-.201 3.632-.605 5.128-.404 1.495-1.11 2.884-2.118 4.166-.807 1.069-1.715 1.924-2.724 2.565a6.081 6.081 0 01-3.328.961c-1.009 0-2.017-.32-3.026-.961s-1.917-1.496-2.724-2.565a26.372 26.372 0 01-2.118-4.166c-.403-1.496-.605-3.206-.605-5.129 0-1.923.303-3.74.908-5.449v-.32h15.432z"
        fill="#555"></path>
</svg>